<?xml version="1.0" encoding="UTF-8" standalone="no"?>
<!-- Created with Inkscape (http://www.inkscape.org/) -->

<svg
   version="1.1"
   id="svg1"
   width="456"
   height="458.03033"
   viewBox="0 0 456 458.03033"
   xmlns="http://www.w3.org/2000/svg"
   xmlns:svg="http://www.w3.org/2000/svg">
  <defs
     id="defs1" />
  <g
     id="g1"
     transform="translate(-20.712999,-14.478056)">
    <g
       id="g2"
       transform="translate(-1.2870003,-6.4350053)">
      <path
         style="fill:#dfecad"
         d="m 242.70904,473.36436 -6.79097,-5.52201 -7.70903,4.59689 -7.70904,4.59689 -8.69716,-8.99401 -8.69716,-8.99401 -9.30284,3.38645 c -5.11656,1.86255 -10.50379,3.8517 -11.97163,4.42032 -2.54618,0.98637 -2.86776,0.73085 -7,-5.562 -2.38216,-3.62772 -4.59004,-6.98946 -4.90639,-7.47052 -0.47992,-0.72981 -9.6463,0.85025 -16.15059,2.78397 -1.36914,0.40704 -2.89253,-1.83089 -7.37186,-10.82964 l -5.6461,-11.3427 -12.75392,0.39738 -12.75392,0.39738 -2.24258,-8.48911 -2.24259,-8.4891 -5.13163,-0.61658 c -2.8224,-0.33911 -6.810557,-0.62049 -8.862578,-0.62527 -4.235213,-0.01 -4.047172,0.39716 -5.77895,-12.50869 -1.930853,-14.38942 -0.513136,-12.72948 -14.031838,-16.42925 L 65,384.79804 v -9.21683 -9.21682 l -8.048529,-3.323 c -7.559384,-3.12104 -8.01642,-3.48157 -7.520194,-5.93219 2.332435,-11.51878 3.67423,-22.42954 2.825721,-22.97728 -0.538409,-0.34756 -5.269163,-3.47267 -10.512786,-6.9447 l -9.533861,-6.31278 3.087501,-8.57199 3.087501,-8.57199 -2.125701,-1.72129 c -1.169136,-0.94671 -4.174805,-3.52498 -6.679265,-5.7295 l -4.553563,-4.0082 5.465126,-10.38574 c 3.005819,-5.71215 5.474783,-10.96112 5.486588,-11.66437 C 35.990342,269.5181 32.85,264.94942 29,260.06872 c -3.85,-4.8807 -7,-9.4165 -7,-10.07957 0,-0.66306 2.285885,-4.07828 5.079745,-7.58937 l 5.079744,-6.3838 -4.706753,-7.75266 -4.706753,-7.75266 9.14108,-8.66684 9.14108,-8.66685 -3.411895,-9.33848 c -1.876542,-5.13617 -3.882842,-10.53944 -4.458443,-12.00728 -0.999854,-2.54971 -0.752263,-2.86202 5.549315,-7 3.627725,-2.38216 6.995542,-4.5938 7.484039,-4.91474 0.493439,-0.32419 0.02463,-4.45904 -1.054843,-9.3036 l -1.943019,-8.72006 11.280075,-5.61492 11.280075,-5.61492 -0.514231,-12.67886 -0.514232,-12.67887 8.529102,-2.35338 8.529101,-2.35338 0.608406,-4.43881 C 82.726217,103.71832 83,99.999497 83,97.895612 c 0,-4.753799 0.946241,-5.290127 12,-6.801578 15.03638,-2.056021 13.28159,-0.593804 16.97212,-14.142363 L 115.22767,65 h 9.20397 9.20397 l 3.30296,-8 c 1.81663,-4.4 3.39738,-8 3.51278,-8 0.1154,0 5.12356,0.893166 11.12923,1.984814 6.00568,1.091648 11.59442,1.983699 12.41942,1.982336 0.825,-0.0014 4.56641,-4.671965 8.31424,-10.379114 l 6.81423,-10.376635 8.57139,3.087284 8.57139,3.087284 2.11438,-2.474981 c 1.1629,-1.361239 3.7464,-4.389276 5.7411,-6.728971 l 3.62673,-4.25399 10.45965,5.535987 C 223.96592,33.508806 229.20696,36 229.85985,36 c 0.6529,0 5.45104,-3.394561 10.66252,-7.54347 l 9.47543,-7.543469 7.04462,5.620788 7.04462,5.620787 7.70648,-4.60274 7.70648,-4.602741 8.64371,9.020717 8.64371,9.020717 9.35629,-3.405804 c 5.14596,-1.873192 10.55724,-3.871042 12.02508,-4.439666 2.54618,-0.986366 2.86776,-0.730847 7,5.562001 2.38216,3.627725 4.59004,6.989461 4.90639,7.470524 0.47992,0.729804 9.6463,-0.850259 16.15059,-2.783971 1.36914,-0.407043 2.89253,1.830887 7.37186,10.829632 l 5.6461,11.342701 12.75392,-0.397376 12.75392,-0.397376 2.24258,8.489101 2.24259,8.489101 5.13163,0.61658 c 2.8224,0.339119 6.78338,0.620491 8.80217,0.625272 4.2009,0.0099 3.89591,-0.738248 6.26448,15.367812 0.79744,5.42252 1.58828,9.98078 1.75743,10.12947 0.16915,0.14869 5.59505,1.72583 12.05755,3.50476 l 11.75,3.23441 v 9.20392 9.20393 l 8.04853,3.323 c 7.55938,3.12104 8.01642,3.48157 7.52019,5.93219 -2.33243,11.51878 -3.67423,22.42954 -2.82572,22.97728 0.53841,0.34756 5.28241,3.4814 10.54222,6.9641 l 9.56328,6.33219 -2.56267,6.66781 c -3.6215,9.42279 -3.78227,10.70329 -1.54374,12.2958 1.06072,0.75461 4.02165,3.22344 6.57983,5.48629 l 4.65126,4.11426 -5.46513,10.38574 c -3.00582,5.71215 -5.47478,10.96112 -5.48659,11.66437 -0.0118,0.70326 3.12854,5.27194 6.97854,10.15264 3.85,4.8807 7,9.4165 7,10.07957 0,0.66306 -2.28589,4.07828 -5.07974,7.58937 l -5.07975,6.3838 4.70675,7.75266 4.70676,7.75266 -9.14108,8.66684 -9.14108,8.66685 3.41189,9.33848 c 1.87654,5.13617 3.88284,10.53944 4.45844,12.00728 0.99986,2.54971 0.75227,2.86202 -5.54931,7 -3.62772,2.38216 -6.99554,4.5938 -7.48404,4.91474 -0.49344,0.32419 -0.0246,4.45904 1.05484,9.3036 l 1.94302,8.72006 -11.28007,5.61492 -11.28008,5.61492 0.51423,12.67886 0.51424,12.67887 -8.52911,2.35338 -8.5291,2.35338 -0.6084,4.43881 C 417.27378,396.28168 417,400.0005 417,402.10439 c 0,4.7538 -0.94624,5.29013 -12,6.80158 -15.03638,2.05602 -13.28159,0.5938 -16.97212,14.14236 L 384.77233,435 h -9.20397 -9.20397 l -3.30296,8 c -1.81663,4.4 -3.39738,8 -3.51278,8 -0.1154,0 -5.12356,-0.89317 -11.12923,-1.98481 -6.00568,-1.09165 -11.59442,-1.9837 -12.41942,-1.98234 -0.825,10e-4 -4.56641,4.67196 -8.31424,10.37911 l -6.81423,10.37664 -8.57139,-3.08729 -8.57139,-3.08728 -2.50328,2.94299 c -1.3768,1.61864 -4.00693,4.62199 -5.84473,6.67412 l -3.34146,3.73114 -10.35602,-5.48114 C 275.98744,466.46651 270.77854,464 270.10792,464 c -0.67063,0 -5.45869,3.375 -10.64015,7.5 -5.18146,4.125 -9.54389,7.47443 -9.6943,7.44318 -0.15041,-0.0312 -3.3294,-2.54171 -7.06443,-5.57882 z M 172,360.44098 V 354 h 4.5 c 3.83333,0 4.5,-0.2963 4.5,-2 0,-1.66926 -0.66667,-2 -4.03138,-2 -4.14587,0 -4.74304,-0.57346 -5.20674,-5 -0.24222,-2.31228 0.11356,-2.53754 4.73812,-3 3.55556,-0.35556 5,-0.93333 5,-2 0,-1.16839 -1.6028,-1.56495 -7.25,-1.79381 L 167,337.91238 v 14.47049 c 0,12.96336 0.18227,14.51187 1.75,14.86787 2.89308,0.65696 3.25,-0.0909 3.25,-6.80976 z m 28.68972,4.34938 C 202.18988,363.13271 202.5,361.02723 202.5,352.5 c 0,-12.7822 -1.06116,-14.50826 -8.90499,-14.48469 -2.80225,0.008 -5.59014,0.34592 -6.19531,0.75 -2.56099,1.71002 -3.6997,6.02204 -3.6997,14.00983 0,6.7934 0.37313,8.8464 2.0057,11.03547 3.20221,4.29377 11.49421,4.83595 14.98402,0.97975 z m -11.25102,-5.26545 c -1.1804,-6.29207 -0.0327,-15.61743 2.11549,-17.18819 3.49123,-2.55286 4.88316,-1.2579 5.83636,5.42973 0.52073,3.65345 0.52073,8.00998 0,10.49083 -0.80115,3.81679 -1.21116,4.27376 -4.08414,4.55187 -2.95492,0.28605 -3.24397,0.0406 -3.86771,-3.28424 z m 34.25102,5.26545 C 225.18988,363.13271 225.5,361.02723 225.5,352.5 c 0,-12.7822 -1.06116,-14.50826 -8.90499,-14.48469 -2.80225,0.008 -5.59014,0.34592 -6.19531,0.75 -2.56099,1.71002 -3.6997,6.02204 -3.6997,14.00983 0,6.7934 0.37313,8.8464 2.0057,11.03547 3.20221,4.29377 11.49421,4.83595 14.98402,0.97975 z m -11.25102,-5.26545 c -1.1804,-6.29207 -0.0327,-15.61743 2.11549,-17.18819 3.49123,-2.55286 4.88316,-1.2579 5.83636,5.42973 0.52073,3.65345 0.52073,8.00998 0,10.49083 -0.80115,3.81679 -1.21116,4.27376 -4.08414,4.55187 -2.95492,0.28605 -3.24397,0.0406 -3.86771,-3.28424 z m 30.32227,6.98357 C 246.43981,365.45051 248,361.03592 248,351.68452 c 0,-6.99883 -0.34876,-8.85817 -2.07258,-11.04966 -1.88269,-2.39345 -2.70727,-2.63486 -9,-2.63486 H 230 v 14.43963 14.43964 l 3.75,0.37848 c 3.99189,0.4029 5.41648,0.28444 9.01097,-0.74927 z M 235,352.56336 V 342 h 2.98095 c 3.71602,0 4.21815,1.64546 3.81555,12.50336 L 241.5,362.5 l -3.25,0.31336 -3.25,0.31336 z m 32,8.37762 V 355 h 3.5 3.5 v 5.88337 c 0,4.98389 0.29692,5.96101 1.9421,6.39124 1.06815,0.27932 2.19315,0.25681 2.5,-0.05 0.75112,-0.75113 0.68838,-24.1358 -0.0724,-26.97457 -0.35467,-1.32345 -1.37854,-2.25 -2.48634,-2.25 -1.65133,0 -1.88337,0.80084 -1.88337,6.5 0,6.07861 -0.14587,6.49901 -2.25,6.48469 -3.73343,-0.0254 -4.61539,-1.27635 -4.93983,-7.00652 -0.27221,-4.80774 -0.58553,-5.51728 -2.56017,-5.79772 -2.24455,-0.31878 -2.25,-0.28446 -2.25,14.17667 0,12.98788 0.18209,14.53758 1.75,14.89362 2.86888,0.65146 3.25,-0.0885 3.25,-6.30976 z m 19.63352,5.84299 c 0.41335,-0.66882 1.00847,-2.80632 1.32248,-4.75 0.44467,-2.75248 1.09579,-3.6086 2.94437,-3.87146 2.75519,-0.39178 4.06273,1.22566 4.08432,5.05231 0.0136,2.40927 2.29123,4.78518 4.58725,4.78518 0.87463,0 -0.14496,-8.95631 -2.15682,-18.94594 C 295.10075,337.56237 295.35664,338 290.95166,338 c -4.50925,0 -3.96199,-1.30204 -6.91637,16.45527 -1.54853,9.30747 -1.71733,12.12789 -0.76217,12.73469 1.71772,1.09124 2.49294,0.99758 3.3604,-0.40599 z M 289.88485,353.25 c -0.2079,-1.35405 0.16568,-4.7045 0.8084,-7.25 0.63071,-2.49796 0.63181,-2.49755 1.35067,0.5 1.23207,5.13756 1.06074,7.5 -0.54392,7.5 -0.825,0 -1.55182,-0.3375 -1.61515,-0.75 z M 318,365.0575 c 0,-1.5704 -0.81413,-2.00141 -4.25,-2.25 l -4.25,-0.3075 -0.23575,-5 C 308.51867,341.68722 307.88531,338 305.91468,338 304.11647,338 304,338.88204 304,352.5 V 367 h 7 c 6.26427,0 7,-0.20417 7,-1.9425 z m 16.80133,-0.24699 c 0.25522,-1.33907 -0.57226,-1.75389 -3.98966,-2 L 326.5,362.5 325.61138,350.19861 c -0.84619,-11.71394 -0.98945,-12.28699 -3,-12 -2.00728,0.28653 -2.12525,0.93976 -2.39273,13.2485 -0.15474,7.12092 -0.0484,13.55412 0.23627,14.29601 0.38006,0.99041 2.31239,1.27022 7.27101,1.05288 5.39901,-0.23664 6.81797,-0.63483 7.0754,-1.98549 z M 228.79216,298.43309 c 20.47392,-4.1621 32.7994,-15.45671 37.92809,-34.75589 3.79998,-14.29922 1.12138,-41.48744 -5.13203,-52.09103 -5.55455,-9.41857 -11.10427,-12.13049 -28.08822,-13.72556 -6.05,-0.56819 -11.93079,-1.20734 -13.06843,-1.42032 -1.89801,-0.35535 -2.17048,-1.52236 -3.30692,-14.16377 -0.68116,-7.57709 -1.49982,-16.13902 -1.81924,-19.02652 L 214.72464,158 H 238.86232 263 v -12.17126 c 0,-9.92216 -0.30582,-12.50919 -1.65499,-14 C 259.80032,130.12188 257.30109,130 223.84501,130 H 188 v 45.4433 45.44329 l 2.22251,1.55671 c 1.78401,1.24957 5.34165,1.5567 18.03211,1.5567 24.77771,0 26.24538,1.25822 26.24538,22.5 0,14.99994 -1.46034,19.47289 -7.5,22.97216 -3.15886,1.83019 -5.23006,2.02729 -21.25,2.02221 l -17.75,-0.006 v 13.17936 13.17935 l 5.25,0.95748 c 8.50884,1.55182 27.03275,1.35802 35.54216,-0.37184 z m 98,0 c 20.47392,-4.1621 32.7994,-15.45671 37.92809,-34.75589 3.79998,-14.29922 1.12138,-41.48744 -5.13203,-52.09103 -5.55455,-9.41857 -11.10427,-12.13049 -28.08822,-13.72556 -6.05,-0.56819 -11.93079,-1.20734 -13.06843,-1.42032 -1.89801,-0.35535 -2.17048,-1.52236 -3.30692,-14.16377 -0.68116,-7.57709 -1.49982,-16.13902 -1.81924,-19.02652 L 312.72464,158 H 336.86232 361 v -12.17126 c 0,-9.92216 -0.30582,-12.50919 -1.65499,-14 C 357.80032,130.12188 355.30109,130 321.84501,130 H 286 v 45.4433 45.44329 l 2.22251,1.55671 c 1.78401,1.24957 5.34165,1.5567 18.03211,1.5567 24.77771,0 26.24538,1.25822 26.24538,22.5 0,14.99994 -1.46034,19.47289 -7.5,22.97216 -3.15886,1.83019 -5.23006,2.02729 -21.25,2.02221 l -17.75,-0.006 v 13.17936 13.17935 l 5.25,0.95748 c 8.50884,1.55182 27.03275,1.35802 35.54216,-0.37184 z M 144,244.02605 V 229.05209 L 159.25,228.77605 174.5,228.5 174.37112,216.71257 C 174.19489,200.59561 174.63309,201 157.34501,201 H 144 V 187.82874 C 144,170.48366 144.46499,171 128.84501,171 H 117 v 15 15 H 102 87 v 12.37756 c 0,9.80184 0.313255,12.63753 1.505343,13.62687 0.96112,0.79766 6.384035,1.43549 14.999997,1.76426 L 117,229.28363 v 13.02944 C 117,259.49575 116.54976,259 132.15499,259 H 144 Z"
         id="path8" />
      <path
         style="fill:#fddc58"
         d="m 242.5,473 c -3.3,-2.71327 -6.37133,-4.94824 -6.82517,-4.96661 -0.45384,-0.0184 -3.97395,1.83727 -7.82247,4.12363 l -6.9973,4.15702 -8.81267,-8.77185 -8.81267,-8.77184 -5.36486,2.01828 c -2.95067,1.11005 -8.36919,3.15407 -12.04114,4.54226 l -6.67628,2.52399 -4.82372,-7.41453 c -2.65305,-4.07798 -5.49872,-7.41499 -6.32372,-7.41557 -0.825,-5.7e-4 -3.975,0.66328 -7,1.47522 -8.79275,2.36007 -8.43499,2.59328 -14.46409,-9.4284 l -5.4808,-10.9284 -12.84701,0.57136 -12.847,0.57136 -2.32747,-8.66078 c -2.58843,-9.63187 -1.88681,-9.08675 -12.95263,-10.06332 -3.530447,-0.31157 -6.558549,-0.70604 -6.729114,-0.8766 -0.170564,-0.17056 -1.107015,-5.6733 -2.081002,-12.2283 L 89.5,391.53874 77.284144,388.09788 65.068287,384.65703 64.784144,375.23261 64.5,365.8082 57.25,362.76449 c -4.753669,-1.9957 -7.246944,-3.5982 -7.241125,-4.6541 0.0049,-0.88571 0.834549,-6.43292 1.843706,-12.32711 l 1.83483,-10.71673 -10.721788,-7.08928 -10.721788,-7.08928 2.874456,-7.694 c 1.58095,-4.23169 2.886415,-8.14399 2.901032,-8.69399 0.01462,-0.55 -2.796251,-3.5473 -6.246373,-6.66067 L 25.5,292.17867 l 5.769185,-10.98596 5.769184,-10.98596 -7.519184,-9.52059 C 25.383633,255.44984 22,250.62962 22,249.97458 c 0,-0.65505 2.25,-4.01861 5,-7.47458 2.75,-3.45597 5,-6.54935 5,-6.87418 0,-0.32483 -1.8,-3.53145 -4,-7.12582 -2.2,-3.59437 -4,-6.8559 -4,-7.24783 0,-0.39193 3.872528,-4.60316 8.605618,-9.35828 l 8.605618,-8.64567 -4.487478,-12.08022 -4.487478,-12.08021 7.368944,-4.7939 c 4.05292,-2.63664 7.367727,-5.46889 7.366239,-6.29389 -0.0015,-0.825 -0.654646,-4.2 -1.451462,-7.5 -0.796817,-3.3 -1.464788,-6.55874 -1.484379,-7.24165 -0.01959,-0.6829 4.899857,-3.71688 10.93211,-6.74217 l 10.967731,-5.50052 -0.612796,-12.81119 -0.612795,-12.81119 8.395064,-2.29874 c 4.617285,-1.2643 8.725673,-2.81529 9.129751,-3.44664 0.404078,-0.63134 0.746531,-2.9479 0.761006,-5.1479 0.01447,-2.2 0.298189,-5.644021 0.630476,-7.65338 l 0.604157,-3.65338 12.114457,-1.848406 12.114457,-1.848405 3.44187,-12.214071 3.44186,-12.214071 9.42442,-0.284143 9.42441,-0.284144 3.04371,-7.25 c 1.9957,-4.753669 3.5982,-7.246944 4.6541,-7.241125 0.88571,0.0049 6.43292,0.834549 12.32711,1.843706 l 10.71673,1.83483 7.11894,-10.766647 7.11894,-10.766646 6.66434,2.528089 c 3.66538,1.390448 7.54172,2.861458 8.61409,3.268911 1.57068,0.596784 3.00306,-0.493026 7.3671,-5.605148 C 204.79639,28.855687 207.64724,26 208.15208,26 c 0.50485,0 5.60813,2.504627 11.34063,5.565837 l 10.42274,5.565838 9.40655,-7.565838 C 244.49561,25.404627 249.28833,22 249.97249,22 c 0.68416,0 4.07154,2.25 7.52751,5 3.45597,2.75 6.5911,5 6.96696,5 0.37586,0 3.83216,-1.870658 7.68068,-4.157018 l 6.9973,-4.157019 8.81267,8.771842 8.81267,8.771842 5.36486,-2.018276 c 2.95067,-1.110051 8.32943,-3.139104 11.95279,-4.509005 l 6.58792,-2.49073 4.91208,7.364473 c 2.70164,4.050461 5.58707,7.372502 6.41207,7.382313 0.825,0.0098 3.975,-0.646478 7,-1.458422 8.79275,-2.360074 8.43499,-2.593279 14.46409,9.428401 l 5.4808,10.928401 12.84701,-0.571363 12.847,-0.571362 2.32747,8.660784 c 2.58843,9.631865 1.88681,9.086749 12.95263,10.063319 3.53045,0.311566 6.55855,0.706036 6.72911,0.8766 0.17057,0.170565 1.10702,5.673299 2.08101,12.228298 l 1.77088,11.918182 12.21586,3.44086 12.21585,3.44085 0.28415,9.42442 0.28414,9.42441 7.25,3.04371 c 4.75367,1.9957 7.24694,3.5982 7.24112,4.6541 -0.005,0.88571 -0.83454,6.43292 -1.8437,12.32711 l -1.83483,10.71673 10.72179,7.08928 10.72178,7.08928 -2.87445,7.694 c -1.58095,4.23169 -2.88642,8.14399 -2.90103,8.69399 -0.0146,0.55 2.79625,3.5473 6.24637,6.66067 l 6.27295,5.66066 -5.80704,11.05799 -5.80705,11.05799 7.55705,9.39563 c 4.15637,5.16759 7.55704,9.95539 7.55704,10.63955 0,0.68416 -2.25,4.07154 -5,7.52751 -2.75,3.45597 -5,6.54935 -5,6.87418 0,0.32483 1.8,3.53145 4,7.12582 2.2,3.59437 4,6.8559 4,7.24783 0,0.39193 -3.87253,4.60316 -8.60562,9.35828 l -8.60562,8.64567 4.48748,12.08022 4.48748,12.08021 -7.36894,4.7939 c -4.05292,2.63664 -7.36773,5.46889 -7.36624,6.29389 10e-4,0.825 0.65464,4.2 1.45146,7.5 0.79682,3.3 1.46479,6.55874 1.48438,7.24165 0.0196,0.6829 -4.89986,3.71688 -10.93211,6.74217 l -10.96773,5.50052 0.61218,12.79835 0.61218,12.79836 -8.89445,2.47379 -8.89445,2.47379 -0.69272,8.34508 c -0.381,4.58979 -0.831,8.4804 -1,8.64581 -0.16901,0.16541 -5.69922,1.13342 -12.28936,2.15114 l -11.98209,1.8504 -3.4394,12.20533 -3.4394,12.20532 -9.42442,0.28415 -9.42441,0.28414 -3.04371,7.25 c -1.9957,4.75367 -3.5982,7.24694 -4.6541,7.24112 -0.88571,-0.005 -6.42907,-0.83389 -12.31857,-1.84225 l -10.70818,-1.83337 -4.70911,7.08185 c -2.59002,3.89502 -5.88631,8.70692 -7.3251,10.69311 l -2.61599,3.61126 -8.41748,-3.19566 -8.41748,-3.19567 -5.41633,6.34481 c -2.97898,3.48964 -5.82939,6.3448 -6.33423,6.3448 -0.50485,0 -5.60813,-2.50463 -11.34063,-5.56584 l -10.42274,-5.56583 -9.40655,7.56583 c -5.17361,4.16121 -10.03013,7.55081 -10.79228,7.53245 C 249.12357,477.94824 245.8,475.71327 242.5,473 Z M 172,361 v -7 h 4.44098 c 4.72082,0 5.94142,-0.83991 4.95528,-3.40976 C 180.96658,349.47052 179.48622,349 176.39301,349 172.19672,349 172,348.86812 172,346.05479 c 0,-2.80414 0.22752,-2.95981 4.75,-3.25 4.05349,-0.2601 4.79686,-0.63471 5.06955,-2.55479 0.30874,-2.17385 0.0464,-2.25 -7.75,-2.25 H 166 v 14.41667 c 0,14.88127 0.11973,15.31805 4.25,15.50438 1.50752,0.068 1.75,-0.89097 1.75,-6.92105 z m 26.38536,5.87028 c 3.53002,-1.60839 5.11464,-6.22912 5.11464,-14.91426 0,-8.46679 -1.71943,-12.32855 -6.25743,-14.0539 -4.02709,-1.53109 -10.03705,-0.14542 -11.93542,2.75186 -2.19694,3.35296 -2.8745,15.67893 -1.14438,20.81824 1.97479,5.86608 8.09622,8.18942 14.22259,5.39806 z m -7.71869,-4.53695 c -0.97123,-0.97123 -0.78764,-17.59417 0.21173,-19.17082 0.46628,-0.73562 1.92189,-1.18562 3.23469,-1 2.25919,0.31943 2.40278,0.76537 2.68341,8.33413 C 197.17742,360.76997 196.61581,363 193.64761,363 c -1.27285,0 -2.61428,-0.3 -2.98094,-0.66667 z m 30.71869,4.53695 c 3.53002,-1.60839 5.11464,-6.22912 5.11464,-14.91426 0,-8.46679 -1.71943,-12.32855 -6.25743,-14.0539 -4.02709,-1.53109 -10.03705,-0.14542 -11.93542,2.75186 -2.19694,3.35296 -2.8745,15.67893 -1.14438,20.81824 1.97479,5.86608 8.09622,8.18942 14.22259,5.39806 z m -7.71869,-4.53695 c -0.97123,-0.97123 -0.78764,-17.59417 0.21173,-19.17082 0.46628,-0.73562 1.92189,-1.18562 3.23469,-1 2.25919,0.31943 2.40278,0.76537 2.68341,8.33413 C 220.17742,360.76997 219.61581,363 216.64761,363 c -1.27285,0 -2.61428,-0.3 -2.98094,-0.66667 z m 30.67437,3.61305 c 1.46187,-1.14991 3.11149,-3.90026 3.74865,-6.25 1.32555,-4.88837 0.58165,-15.64854 -1.28893,-18.64381 -1.8271,-2.92565 -6.98774,-4.35206 -12.83559,-3.54778 L 229,338.18768 v 14.33283 c 0,16.09059 -0.49842,15.14699 8.11514,15.36349 3.27088,0.0822 5.37558,-0.48216 7.2259,-1.93762 z m -8.67437,-3.61305 C 235.3,361.96667 235,357.45254 235,352.30195 c 0,-7.74752 0.28251,-9.47313 1.63592,-9.99248 3.57629,-1.37235 4.85022,1.01015 5.15609,9.64285 0.18474,5.21406 -0.13575,8.75693 -0.87245,9.6446 -1.21998,1.46999 -4.11365,1.87565 -5.25289,0.73641 z m 32.13105,-1.09337 C 268.0774,355.3779 268.24279,355 270.52867,355 c 2.63285,0 3.22962,1.36919 3.70479,8.5 0.21913,3.28847 0.66677,4.05684 2.51654,4.31955 2.24377,0.31867 2.25,0.27977 2.25,-14.05 C 279,339.40582 278.46918,337 275.3,337 c -0.93333,0 -1.3,1.83333 -1.3,6.5 v 6.5 h -2.95469 c -3.10763,0 -3.52697,-0.9305 -4.28125,-9.5 -0.19763,-2.24531 -0.76718,-3 -2.26406,-3 -1.89468,0 -2.01467,0.7595 -2.27851,14.42336 -0.28654,14.83853 0.0985,16.45024 3.77851,15.81534 1.10626,-0.19086 1.57815,-1.89672 1.79772,-6.49874 z m 19.981,4.26004 c 0.8613,-5.75835 1.28591,-6.5 3.72128,-6.5 1.87877,0 2.59895,0.65137 3.04051,2.75 0.89264,4.2425 1.9651,5.72061 4.41352,6.0829 2.12528,0.31449 2.21087,0.0931 1.54675,-4 -1.84848,-11.39257 -4.75396,-24.43304 -5.69697,-25.5693 -1.34985,-1.62646 -6.25887,-1.63529 -7.56799,-0.0136 -1.35869,1.68311 -5.57901,27.38569 -4.72387,28.76933 1.10305,1.78477 4.93803,0.67848 5.26677,-1.51933 z m 2.23659,-14.75 c 0.0182,-2.66827 1.93396,-6.29113 1.98303,-3.75 0.0159,0.825 0.30031,2.5125 0.63195,3.75 0.44329,1.65413 0.17484,2.25 -1.01366,2.25 -1.01438,0 -1.61093,-0.83821 -1.60132,-2.25 z m 27.80424,14 c -0.26564,-1.87042 -1.03653,-2.30187 -4.56955,-2.5575 L 309,361.885 v -10.75137 c 0,-11.3998 -1.15188,-15.0568 -4.35539,-13.82749 -1.41672,0.54364 -1.64461,2.55228 -1.64461,14.49581 0,7.62559 0.3,14.16472 0.66667,14.53138 0.36666,0.36667 3.77296,0.66667 7.56955,0.66667 6.58656,0 6.88824,-0.10311 6.58333,-2.25 z m 17,0 c -0.26441,-1.86174 -1.03831,-2.30235 -4.48481,-2.55336 l -4.16526,-0.30335 -0.33474,-11.39932 c -0.34097,-11.61164 -1.22162,-14.32696 -4.26752,-13.15814 C 320.24375,337.84369 320,340.19732 320,352.46862 V 367 h 7.56955 c 7.27792,0 7.55724,-0.0867 7.25,-2.25 z M 232.32452,298.05881 c 26.12943,-6.7293 37.93337,-25.43211 36.3272,-57.55881 -0.86008,-17.20325 -3.5922,-26.09856 -10.30455,-33.54978 -5.34476,-5.93308 -10.0921,-7.71206 -25.70317,-9.63175 l -13.52647,-1.66335 -0.53549,-3.57756 C 218.28752,190.1099 217.57967,183.1 217.00903,176.5 c -0.57064,-6.6 -1.27651,-13.4625 -1.56859,-15.25 L 214.90937,158 h 24.69246 24.69245 l -0.55614,-12.0707 c -0.43934,-9.53578 -0.9228,-12.47587 -2.30212,-14 C 259.77321,130.09192 257.98218,130 223.84501,130 H 188 v 45.34501 c 0,41.92421 0.13202,45.46281 1.75,46.9065 1.40501,1.25366 5.11032,1.6292 18.79537,1.90499 14.19233,0.286 17.49459,0.63799 19.72919,2.10292 4.83494,3.16962 5.93598,6.85475 6.02096,20.15196 0.0951,14.88532 -1.67425,20.06575 -7.91056,23.16064 -3.41902,1.69675 -5.95381,1.91313 -21.13496,1.80413 L 188,271.25229 v 13.40524 c 0,9.8611 0.33048,13.50261 1.25,13.77354 9.904,2.91812 31.00635,2.73574 43.07452,-0.37226 z m 98,0 c 26.12943,-6.7293 37.93337,-25.43211 36.3272,-57.55881 -0.86008,-17.20325 -3.5922,-26.09856 -10.30455,-33.54978 -5.34476,-5.93308 -10.0921,-7.71206 -25.70317,-9.63175 l -13.52647,-1.66335 -0.53549,-3.57756 C 316.28752,190.1099 315.57967,183.1 315.00903,176.5 c -0.57064,-6.6 -1.27651,-13.4625 -1.56859,-15.25 L 312.90937,158 h 24.69246 24.69245 l -0.55614,-12.0707 c -0.43934,-9.53578 -0.9228,-12.47587 -2.30212,-14 C 357.77321,130.09192 355.98218,130 321.84501,130 H 286 v 45.34501 c 0,41.92421 0.13202,45.46281 1.75,46.9065 1.40501,1.25366 5.11032,1.6292 18.79537,1.90499 14.19233,0.286 17.49459,0.63799 19.72919,2.10292 4.83494,3.16962 5.93598,6.85475 6.02096,20.15196 0.0951,14.88532 -1.67425,20.06575 -7.91056,23.16064 -3.41902,1.69675 -5.95381,1.91313 -21.13496,1.80413 L 286,271.25229 v 13.40524 c 0,9.8611 0.33048,13.50261 1.25,13.77354 9.904,2.91812 31.00635,2.73574 43.07452,-0.37226 z M 145,244 v -15 h 15 15 v -11.68555 c 0,-10.62152 -0.19798,-11.89629 -2.17431,-14 C 170.77458,201.13115 169.93275,201 157.96938,201 H 145.2874 l -0.52907,-13.04459 C 144.0543,170.5969 144.43263,171 128.84501,171 H 117 v 15 15 H 102 87 v 12.17126 C 87,229.47679 86.517736,229 103.01038,229 h 12.70041 l 0.6375,6.75 c 0.35062,3.7125 0.64069,9.63957 0.6446,13.17126 0.0107,9.69392 0.60874,10.07874 15.6621,10.07874 H 145 Z"
         id="path7" />
      <path
         style="fill:#afe697"
         d="m 233.5,465.97474 c -8.25,-6.56986 -15.49622,-11.95184 -16.10272,-11.95997 -0.88851,-0.0119 -23.69951,8.22049 -35.54313,12.82736 -2.59589,1.00974 -2.85989,0.70698 -13.98238,-16.03516 l -11.33654,-17.06432 -20.5559,0.71104 -20.55589,0.71104 -5.30576,-18.83237 c -2.91816,-10.3578 -5.82594,-19.35254 -6.46172,-19.98832 -0.63578,-0.63578 -9.636823,-3.54534 -20.002321,-6.46569 L 64.807278,384.56863 65.523149,364.01061 66.239021,343.45259 49.247918,332.1647 32.256815,320.87681 39.128407,302.22285 C 42.907783,291.96318 46,283.15724 46,282.65411 c 0,-0.50314 -5.4,-7.80908 -12,-16.23542 -6.6,-8.42634 -12,-15.82726 -12,-16.44649 0,-0.61922 5.4,-8.01343 12,-16.43157 6.6,-8.41814 12,-15.73781 12,-16.26594 0,-0.52813 -3.090389,-9.32949 -6.867532,-19.55857 l -6.867532,-18.59833 17.003823,-11.29634 17.003823,-11.29634 -0.703099,-20.55524 -0.703099,-20.55525 18.816808,-5.30135 c 10.349244,-2.91574 19.336988,-5.82153 19.972768,-6.45731 0.63578,-0.63578 3.54831,-9.647303 6.47229,-20.02561 l 5.31632,-18.86965 20.56669,0.716173 20.56669,0.716174 11.31976,-17.039072 11.31976,-17.039073 4.64126,1.802653 c 2.5527,0.99146 11.11336,4.186637 19.0237,7.100393 12.6754,4.66896 14.63376,5.141082 16.5,3.977831 1.16466,-0.72595 8.26281,-6.19698 15.77367,-12.157844 C 242.66695,26.877071 249.35865,22 250.02654,22 c 0.66789,0 7.46434,4.948804 15.10322,10.997341 7.63887,6.048538 14.73056,11.522992 15.75931,12.165454 1.79481,1.120877 11.79744,-2.065687 35.20938,-11.21674 l 4.59846,-1.797404 11.40154,17.051032 11.40155,17.051032 20.53828,-0.707722 20.53828,-0.707722 5.30576,18.832365 c 2.91816,10.3578 5.82594,19.352544 6.46172,19.988324 0.63578,0.63578 9.63682,3.54534 20.00232,6.46569 l 18.84636,5.30972 -0.71587,20.55802 -0.71587,20.55802 16.9911,11.28789 16.99111,11.28789 -6.8716,18.65396 C 457.09222,208.03682 454,216.83185 454,217.32165 c 0,0.96431 1.7912,3.35893 15.19587,20.31509 4.84227,6.12521 8.80413,11.67228 8.80413,12.32683 0,0.65455 -5.4,8.07766 -12,16.4958 -6.6,8.41814 -12,15.73781 -12,16.26594 0,0.52813 3.09039,9.32949 6.86753,19.55857 l 6.86753,18.59833 -17.00382,11.29634 -17.00382,11.29634 0.7031,20.55524 0.7031,20.55525 -18.81681,5.30135 c -10.34925,2.91574 -19.33699,5.82153 -19.97277,6.45731 -0.63578,0.63578 -3.54831,9.6473 -6.47229,20.02561 l -5.31632,18.86965 -20.52772,-0.71354 -20.52771,-0.71355 -11.43847,17.00502 -11.43847,17.00501 -4.56153,-1.77122 c -2.50884,-0.97418 -11.03362,-4.15521 -18.94396,-7.06897 -12.6754,-4.66896 -14.63376,-5.14108 -16.5,-3.97783 -1.16466,0.72595 -8.26281,6.19698 -15.77367,12.15785 -7.51085,5.96086 -14.26085,10.81991 -15,10.79789 -0.73914,-0.022 -8.0939,-5.41537 -16.3439,-11.98522 z M 172,361 v -7 h 4.44098 c 4.72082,0 5.94142,-0.83991 4.95528,-3.40976 C 180.96658,349.47052 179.48622,349 176.39301,349 172.19672,349 172,348.86812 172,346.05479 c 0,-2.80414 0.22752,-2.95981 4.75,-3.25 4.05349,-0.2601 4.79686,-0.63471 5.06955,-2.55479 0.30874,-2.17385 0.0464,-2.25 -7.75,-2.25 H 166 v 14.41667 c 0,14.88127 0.11973,15.31805 4.25,15.50438 1.50752,0.068 1.75,-0.89097 1.75,-6.92105 z m 26.38536,5.87028 c 3.53002,-1.60839 5.11464,-6.22912 5.11464,-14.91426 0,-8.46679 -1.71943,-12.32855 -6.25743,-14.0539 -4.02709,-1.53109 -10.03705,-0.14542 -11.93542,2.75186 -2.19694,3.35296 -2.8745,15.67893 -1.14438,20.81824 1.97479,5.86608 8.09622,8.18942 14.22259,5.39806 z m -7.71869,-4.53695 c -0.97123,-0.97123 -0.78764,-17.59417 0.21173,-19.17082 0.46628,-0.73562 1.92189,-1.18562 3.23469,-1 2.25919,0.31943 2.40278,0.76537 2.68341,8.33413 C 197.17742,360.76997 196.61581,363 193.64761,363 c -1.27285,0 -2.61428,-0.3 -2.98094,-0.66667 z m 30.71869,4.53695 c 3.53002,-1.60839 5.11464,-6.22912 5.11464,-14.91426 0,-8.46679 -1.71943,-12.32855 -6.25743,-14.0539 -4.02709,-1.53109 -10.03705,-0.14542 -11.93542,2.75186 -2.19694,3.35296 -2.8745,15.67893 -1.14438,20.81824 1.97479,5.86608 8.09622,8.18942 14.22259,5.39806 z m -7.71869,-4.53695 c -0.97123,-0.97123 -0.78764,-17.59417 0.21173,-19.17082 0.46628,-0.73562 1.92189,-1.18562 3.23469,-1 2.25919,0.31943 2.40278,0.76537 2.68341,8.33413 C 220.17742,360.76997 219.61581,363 216.64761,363 c -1.27285,0 -2.61428,-0.3 -2.98094,-0.66667 z m 30.67437,3.61305 c 1.46187,-1.14991 3.11149,-3.90026 3.74865,-6.25 1.32555,-4.88837 0.58165,-15.64854 -1.28893,-18.64381 -1.8271,-2.92565 -6.98774,-4.35206 -12.83559,-3.54778 L 229,338.18768 v 14.33283 c 0,16.09059 -0.49842,15.14699 8.11514,15.36349 3.27088,0.0822 5.37558,-0.48216 7.2259,-1.93762 z m -8.67437,-3.61305 C 235.3,361.96667 235,357.45254 235,352.30195 c 0,-7.74752 0.28251,-9.47313 1.63592,-9.99248 3.57629,-1.37235 4.85022,1.01015 5.15609,9.64285 0.18474,5.21406 -0.13575,8.75693 -0.87245,9.6446 -1.21998,1.46999 -4.11365,1.87565 -5.25289,0.73641 z m 32.13105,-1.09337 C 268.0774,355.3779 268.24279,355 270.52867,355 c 2.63285,0 3.22962,1.36919 3.70479,8.5 0.21913,3.28847 0.66677,4.05684 2.51654,4.31955 2.24377,0.31867 2.25,0.27977 2.25,-14.05 C 279,339.40582 278.46918,337 275.3,337 c -0.93333,0 -1.3,1.83333 -1.3,6.5 v 6.5 h -2.95469 c -3.10763,0 -3.52697,-0.9305 -4.28125,-9.5 -0.19763,-2.24531 -0.76718,-3 -2.26406,-3 -1.89468,0 -2.01467,0.7595 -2.27851,14.42336 -0.28654,14.83853 0.0985,16.45024 3.77851,15.81534 1.10626,-0.19086 1.57815,-1.89672 1.79772,-6.49874 z m 19.981,4.26004 c 0.8613,-5.75835 1.28591,-6.5 3.72128,-6.5 1.87877,0 2.59895,0.65137 3.04051,2.75 0.89264,4.2425 1.9651,5.72061 4.41352,6.0829 2.12528,0.31449 2.21087,0.0931 1.54675,-4 -1.84848,-11.39257 -4.75396,-24.43304 -5.69697,-25.5693 -1.34985,-1.62646 -6.25887,-1.63529 -7.56799,-0.0136 -1.35869,1.68311 -5.57901,27.38569 -4.72387,28.76933 1.10305,1.78477 4.93803,0.67848 5.26677,-1.51933 z m 2.23659,-14.75 c 0.0182,-2.66827 1.93396,-6.29113 1.98303,-3.75 0.0159,0.825 0.30031,2.5125 0.63195,3.75 0.44329,1.65413 0.17484,2.25 -1.01366,2.25 -1.01438,0 -1.61093,-0.83821 -1.60132,-2.25 z m 27.80424,14 c -0.26564,-1.87042 -1.03653,-2.30187 -4.56955,-2.5575 L 309,361.885 v -10.75137 c 0,-11.3998 -1.15188,-15.0568 -4.35539,-13.82749 -1.41672,0.54364 -1.64461,2.55228 -1.64461,14.49581 0,7.62559 0.3,14.16472 0.66667,14.53138 0.36666,0.36667 3.77296,0.66667 7.56955,0.66667 6.58656,0 6.88824,-0.10311 6.58333,-2.25 z m 17,0 c -0.26441,-1.86174 -1.03831,-2.30235 -4.48481,-2.55336 l -4.16526,-0.30335 -0.33474,-11.39932 c -0.34097,-11.61164 -1.22162,-14.32696 -4.26752,-13.15814 C 320.24375,337.84369 320,340.19732 320,352.46862 V 367 h 7.56955 c 7.27792,0 7.55724,-0.0867 7.25,-2.25 z M 232.32452,298.05881 c 26.12943,-6.7293 37.93337,-25.43211 36.3272,-57.55881 -0.86008,-17.20325 -3.5922,-26.09856 -10.30455,-33.54978 -5.34476,-5.93308 -10.0921,-7.71206 -25.70317,-9.63175 l -13.52647,-1.66335 -0.53549,-3.57756 C 218.28752,190.1099 217.57967,183.1 217.00903,176.5 c -0.57064,-6.6 -1.27651,-13.4625 -1.56859,-15.25 L 214.90937,158 h 24.69246 24.69245 l -0.55614,-12.0707 c -0.43934,-9.53578 -0.9228,-12.47587 -2.30212,-14 C 259.77321,130.09192 257.98218,130 223.84501,130 H 188 v 45.34501 c 0,41.92421 0.13202,45.46281 1.75,46.9065 1.40501,1.25366 5.11032,1.6292 18.79537,1.90499 14.19233,0.286 17.49459,0.63799 19.72919,2.10292 4.83494,3.16962 5.93598,6.85475 6.02096,20.15196 0.0951,14.88532 -1.67425,20.06575 -7.91056,23.16064 -3.41902,1.69675 -5.95381,1.91313 -21.13496,1.80413 L 188,271.25229 v 13.40524 c 0,9.8611 0.33048,13.50261 1.25,13.77354 9.904,2.91812 31.00635,2.73574 43.07452,-0.37226 z m 98,0 c 26.12943,-6.7293 37.93337,-25.43211 36.3272,-57.55881 -0.86008,-17.20325 -3.5922,-26.09856 -10.30455,-33.54978 -5.34476,-5.93308 -10.0921,-7.71206 -25.70317,-9.63175 l -13.52647,-1.66335 -0.53549,-3.57756 C 316.28752,190.1099 315.57967,183.1 315.00903,176.5 c -0.57064,-6.6 -1.27651,-13.4625 -1.56859,-15.25 L 312.90937,158 h 24.69246 24.69245 l -0.55614,-12.0707 c -0.43934,-9.53578 -0.9228,-12.47587 -2.30212,-14 C 357.77321,130.09192 355.98218,130 321.84501,130 H 286 v 45.34501 c 0,41.92421 0.13202,45.46281 1.75,46.9065 1.40501,1.25366 5.11032,1.6292 18.79537,1.90499 14.19233,0.286 17.49459,0.63799 19.72919,2.10292 4.83494,3.16962 5.93598,6.85475 6.02096,20.15196 0.0951,14.88532 -1.67425,20.06575 -7.91056,23.16064 -3.41902,1.69675 -5.95381,1.91313 -21.13496,1.80413 L 286,271.25229 v 13.40524 c 0,9.8611 0.33048,13.50261 1.25,13.77354 9.904,2.91812 31.00635,2.73574 43.07452,-0.37226 z M 145,244 v -15 h 15 15 v -11.68555 c 0,-10.62152 -0.19798,-11.89629 -2.17431,-14 C 170.77458,201.13115 169.93275,201 157.96938,201 H 145.2874 l -0.52907,-13.04459 C 144.0543,170.5969 144.43263,171 128.84501,171 H 117 v 15 15 H 102 87 v 12.17126 C 87,229.47679 86.517736,229 103.01038,229 h 12.70041 l 0.6375,6.75 c 0.35062,3.7125 0.64069,9.63957 0.6446,13.17126 0.0107,9.69392 0.60874,10.07874 15.6621,10.07874 H 145 Z"
         id="path6" />
      <path
         style="fill:#8cdc6a"
         d="m 233.5,465.94946 c -8.25,-6.55205 -15.49165,-11.92106 -16.09255,-11.93114 -0.60091,-0.0101 -9.09211,2.90668 -18.86934,6.48168 -9.77723,3.575 -18.16005,6.5 -18.62848,6.5 -0.46843,0 -5.92723,-7.48163 -12.13066,-16.62584 L 156.5,433.74833 l -20.5,0.64929 -20.5,0.64929 -5.37426,-18.77345 c -2.95585,-10.3254 -5.76897,-19.27032 -6.25139,-19.87759 -0.48242,-0.60728 -9.438056,-3.51238 -19.901419,-6.45578 L 64.948634,384.58844 65.606285,364.04422 66.263935,343.5 49.631968,332.19418 C 40.484385,325.97598 33,320.49546 33,320.01524 c 0,-0.48021 2.967666,-9.01937 6.594813,-18.9759 3.627148,-9.95654 6.365909,-18.65102 6.086137,-19.32107 -0.279773,-0.67005 -5.722439,-7.8839 -12.094814,-16.03077 C 27.213761,257.54062 22,250.47664 22,249.98976 c 0,-0.48687 5.381889,-7.77125 11.959753,-16.18749 6.577864,-8.41625 11.977864,-15.79392 12,-16.39482 C 45.981889,216.80654 43.075,208.31534 39.5,198.53811 35.925,188.76088 33,180.37806 33,179.90963 33,179.4412 40.48267,173.9824 49.628155,167.77897 L 66.25631,156.5 l -0.639041,-20.55854 -0.639041,-20.55854 18.760886,-5.3012 c 10.318487,-2.91566 19.244066,-5.69109 19.834626,-6.16762 0.59055,-0.47653 3.51555,-9.451933 6.5,-19.945341 L 115.5,64.889836 136,65.557347 156.5,66.224858 167.80582,49.612429 C 174.02402,40.475593 179.50454,33 179.98476,33 c 0.48021,0 9.07667,2.988542 19.10325,6.641204 15.78642,5.750965 18.50203,6.471407 20.25844,5.374505 1.11557,-0.696684 8.23125,-6.160226 15.81263,-12.141204 C 242.74045,26.893527 249.41963,22 250.00171,22 c 0.58208,0 7.353,4.951297 15.04649,11.002881 7.69349,6.051585 14.82071,11.522814 15.83826,12.158286 1.52166,0.950291 5.146,-0.04431 20.41594,-5.602613 10.21121,-3.71691 18.94674,-6.522611 19.41228,-6.234891 0.46554,0.28772 5.78269,7.815954 11.81588,16.72941 L 343.5,66.259357 364,65.610178 384.5,64.960999 389.86762,83.7305 c 2.9522,10.323225 5.7632,19.2638 6.24668,19.86795 0.48347,0.60415 9.44166,3.52292 19.90707,6.48616 l 19.02803,5.3877 -0.65667,20.51385 -0.65667,20.51384 16.63197,11.30582 C 459.51561,174.02402 467,179.50454 467,179.98476 c 0,0.48021 -2.98854,9.07667 -6.6412,19.10325 -5.7666,15.82932 -6.47352,18.49865 -5.3679,20.26902 0.70031,1.12139 6.16386,8.25634 12.1412,15.85545 5.97735,7.59911 10.8679,14.25422 10.8679,14.78915 0,0.53492 -4.94907,7.283 -10.99793,14.99573 -6.04886,7.71274 -11.52009,14.85926 -12.15829,15.88118 -0.95682,1.53211 0.025,5.11454 5.59767,20.42386 3.71691,10.21121 6.52261,18.94674 6.23489,19.41228 -0.28772,0.46554 -7.817,5.78269 -16.73173,11.81588 L 433.736,343.5 l 0.6414,20.5124 0.64141,20.5124 -18.75941,5.34323 c -10.31767,2.93878 -19.24258,5.73497 -19.83314,6.21376 -0.59055,0.47879 -3.51555,9.45604 -6.5,19.94945 L 384.5,435.11016 364,434.44265 343.5,433.77514 332.19418,450.38757 C 325.97598,459.52441 320.49546,467 320.01524,467 c -0.48021,0 -9.07667,-2.98854 -19.10325,-6.6412 -15.78642,-5.75097 -18.50203,-6.47141 -20.25844,-5.37451 -1.11557,0.69669 -8.23125,6.16023 -15.81263,12.14121 -7.58137,5.98097 -14.35955,10.84351 -15.06261,10.80564 C 249.07524,477.89327 241.75,472.50151 233.5,465.94946 Z M 173.79569,362.6703 174.09138,356 h 4.34302 c 4.14702,0 4.37179,0.15337 4.98059,3.39855 1.38351,7.37473 7.92388,11.45112 15.16489,9.45178 4.61388,-1.27395 6.42783,-5.40422 6.39816,-14.56821 -0.0268,-8.26724 -2.642,-14.82366 -6.49757,-16.28955 -3.42162,-1.30089 -8.10826,-1.26214 -10.63087,0.0879 -2.47446,1.32429 -4.83909,6.72096 -4.88001,11.13739 -0.0251,2.71395 -0.20685,2.97918 -1.04969,1.53212 -0.70324,-1.2074 -2.26567,-1.75 -5.03914,-1.75 -3.59676,0 -3.98623,-0.23682 -3.70031,-2.25 0.2688,-1.89266 1.03162,-2.30065 4.80312,-2.56891 5.02153,-0.35718 6.38385,-1.61989 4.68411,-4.34161 C 181.71211,338.30937 180.20941,338 173.73272,338 h -7.78619 l 0.27674,14.72184 c 0.27403,14.57821 0.30112,14.73416 2.77673,15.98439 1.375,0.69441 2.95,1.12121 3.5,0.94846 0.55,-0.17274 1.13306,-3.31572 1.29569,-6.98439 z M 191,355 c 0,-6.71443 0.32725,-8.32725 2.03647,-10.03647 1.12007,-1.12007 2.47007,-1.76851 3,-1.44099 1.42051,0.87792 1.21416,16.82683 -0.23647,18.27746 -0.66,0.66 -2.01,1.2 -3,1.2 -1.58333,0 -1.8,-0.96296 -1.8,-8 z m 31.84129,13.48299 c 7.68027,-2.21657 6.55266,-27.48171 -1.36082,-30.49042 -4.60683,-1.75151 -9.36808,-1.19587 -11.95965,1.3957 -2.91328,2.91328 -3.88241,7.59212 -3.33929,16.12167 0.48255,7.57827 2.76937,11.38613 7.91213,13.17478 3.34978,1.16505 4.06929,1.14846 8.74763,-0.20173 z M 214,355 c 0,-6.71443 0.32725,-8.32725 2.03647,-10.03647 1.12007,-1.12007 2.47007,-1.76851 3,-1.44099 1.42051,0.87792 1.21416,16.82683 -0.23647,18.27746 -0.66,0.66 -2.01,1.2 -3,1.2 -1.58333,0 -1.8,-0.96296 -1.8,-8 z m 30.3159,13.55735 C 248.16596,367.69798 250,362.92555 250,353.76652 250,341.81275 246.25177,337.04449 236.83179,337.01474 228.73404,336.98917 229,336.47422 229,352.17842 c 0,15.45508 0.33533,16.39302 6.10435,17.07392 3.54608,0.41853 4.56848,0.34139 9.21155,-0.69499 z M 237,353 c 0,-8.16378 0.17589,-9 1.89301,-9 2.45961,0 3.10699,1.87525 3.10699,9 0,7.12475 -0.64738,9 -3.10699,9 C 237.17589,362 237,361.16378 237,353 Z m 32,9.94098 C 269,357.72245 269.23655,357 270.94521,357 c 1.60432,0 1.99862,0.81478 2.25,4.64938 0.24038,3.66686 0.86483,5.06596 2.95496,6.62071 4.62912,3.44339 5.17148,1.89542 4.62826,-13.20966 -0.53254,-14.808 -1.54997,-18.37595 -5.09609,-17.87111 -1.93886,0.27602 -2.21556,1.00799 -2.48006,6.56068 -0.25869,5.43075 -0.55362,6.25 -2.25,6.25 C 269.44515,350 269,349.30863 269,346.96788 269,342.14539 266.43191,337 264.02498,337 c -2.02388,0 -2.07,0.38979 -1.80103,15.22177 0.27243,15.02223 0.30809,15.23773 2.72022,16.43902 1.34429,0.66948 2.80679,0.99313 3.25,0.71921 0.4432,-0.27392 0.80583,-3.17148 0.80583,-6.43902 z m 20.4176,1.80125 c 1.17602,-6.07776 3.94309,-6.60542 5.26767,-1.00451 0.92304,3.90299 4.92449,7.05252 6.70194,5.27507 1.1247,-1.1247 -2.98031,-24.15237 -5.13643,-28.81354 -1.4091,-3.04625 -1.84389,-3.27757 -5.63881,-3 L 286.5,337.5 284.3418,349 c -2.72878,14.5403 -2.83025,17.90473 -0.5918,19.62228 3.02034,2.31748 4.68952,1.17476 5.6676,-3.88005 z M 319.925,367.75 c 1.06,-1 1.41667,-1 1.78333,0 0.58412,1.59305 13.87607,1.73146 14.8506,0.15465 0.37233,-0.60245 0.0979,-2.17745 -0.60996,-3.5 C 334.93366,362.50752 333.85348,362 330.83102,362 H 327 V 351.32874 C 327,340.00874 325.91756,337 321.84501,337 c -1.70561,0 -1.84731,1.07667 -1.87542,14.25 -0.0217,10.1701 -0.32224,13.74896 -1.04969,12.5 -0.69854,-1.19931 -2.26235,-1.75 -4.96959,-1.75 H 310 v -10.80887 c 0,-11.5404 -1.03284,-14.71562 -4.5661,-14.03738 -1.78809,0.34324 -1.95483,1.44567 -2.21143,14.62147 -0.204,10.47426 0.061,14.63425 1,15.69947 1.64136,1.86196 13.79481,2.07504 15.70253,0.27531 z M 245.5,306.66484 c 16.96368,-5.54864 27.07432,-16.27718 30.98948,-32.88336 1.97981,-8.39736 1.94473,-27.76363 -0.0679,-37.50756 -1.90767,-9.23564 -6.113,-17.91201 -10.60348,-21.87694 -1.82494,-1.61135 -4.86962,-4.89956 -6.76597,-7.30713 -4.44089,-5.63809 -9.76451,-7.93941 -21.86848,-9.45345 l -9.68362,-1.21128 -1.16402,-9.96256 c -0.64022,-5.47941 -1.20272,-11.87506 -1.25,-14.21256 L 225,168 h 24 24 V 155.82874 C 273,142.28764 272.11045,140 266.84501,140 264.31641,140 264,139.6473 264,136.82874 c 0,-1.74419 -0.74474,-3.99419 -1.65499,-5 C 260.79873,130.12012 258.26987,130 223.84501,130 H 187 v 44.68555 c 0,44.50339 0.009,44.69498 2.17431,47 1.42745,1.51945 3.31667,2.31445 5.5,2.31445 3.06845,0 3.32569,0.24529 3.32569,3.17126 0,6.33811 1.41216,6.82874 19.65499,6.82874 H 234 v 11.85078 c 0,23.35259 -2.88215,25.81316 -29.75,25.39833 L 188,270.99821 V 284.99911 299 l 2.75,0.0136 c 5.9554,0.0296 7.25,0.93739 7.25,5.08393 0,4.06259 -0.0574,4.01922 7,5.29414 1.375,0.24839 9.25,0.32523 17.5,0.17073 13.00133,-0.24346 16.06596,-0.62955 23,-2.89761 z m 98,0 c 16.96368,-5.54864 27.07432,-16.27718 30.98948,-32.88336 1.97981,-8.39736 1.94473,-27.76363 -0.0679,-37.50756 -1.90767,-9.23564 -6.113,-17.91201 -10.60348,-21.87694 -1.82494,-1.61135 -4.86962,-4.89956 -6.76597,-7.30713 -4.44089,-5.63809 -9.76451,-7.93941 -21.86848,-9.45345 l -9.68362,-1.21128 -1.16402,-9.96256 c -0.64022,-5.47941 -1.20272,-11.87506 -1.25,-14.21256 L 323,168 h 24 24 V 155.82874 C 371,142.28764 370.11045,140 364.84501,140 362.31641,140 362,139.6473 362,136.82874 c 0,-1.74419 -0.74474,-3.99419 -1.65499,-5 C 358.79873,130.12012 356.26987,130 321.84501,130 H 285 v 44.68555 c 0,44.50339 0.009,44.69498 2.17431,47 1.42745,1.51945 3.31667,2.31445 5.5,2.31445 3.06845,0 3.32569,0.24529 3.32569,3.17126 0,6.33811 1.41216,6.82874 19.65499,6.82874 H 332 v 11.85078 c 0,23.35259 -2.88215,25.81316 -29.75,25.39833 L 286,270.99821 V 284.99911 299 l 2.75,0.0136 c 5.9554,0.0296 7.25,0.93739 7.25,5.08393 0,4.06259 -0.0573,4.01922 7,5.29414 1.375,0.24839 9.25,0.32523 17.5,0.17073 13.00133,-0.24346 16.06596,-0.62955 23,-2.89761 z M 154,254 v -15 h 15 15 V 226.82874 C 184,213.28764 183.11045,211 177.84501,211 175.31641,211 175,210.6473 175,207.82874 175,202.20097 172.86231,201 162.84501,201 H 154 v -8.17126 C 154,183.5901 152.65226,181 147.84501,181 145.42458,181 145,180.59922 145,178.31445 c 0,-1.47705 -0.97844,-3.72705 -2.17431,-5 C 140.78099,171.13797 139.91661,171 128.32569,171 H 116 v 15 15 H 101 86 v 11.68555 c 0,10.62152 0.197982,11.89629 2.174314,14 1.27787,1.36023 3.339312,2.31445 5,2.31445 2.39946,0 2.825686,0.40509 2.825686,2.68555 0,1.47705 0.978441,3.72705 2.174314,5 C 100.08786,238.72242 101.28719,239 108.17431,239 H 116 v 7.77749 c 0,9.46223 1.3643,11.96555 6.76505,12.41304 3.32511,0.27551 3.77156,0.63866 4.06861,3.30947 0.6496,5.84058 2.20394,6.5 15.32133,6.5 H 154 Z"
         id="path5" />
      <path
         style="fill:#7cd756"
         d="m 233.05058,465.50639 c -8.49718,-6.80786 -15.69718,-12.22754 -16,-12.04374 C 215.79303,454.22596 180.77399,467 179.93899,467 c -0.50037,0 -5.91837,-7.49301 -12.04001,-16.65113 l -11.13025,-16.65113 -20.63652,0.68052 -20.63653,0.68051 -5.51187,-19.75724 -5.51188,-19.75725 -19.860094,-5.47621 -19.860095,-5.47621 0.620081,-13.04593 C 65.712866,364.37067 66.083539,355.125 66.195538,351 l 0.203635,-7.5 -16.391621,-11.0761 c -9.015392,-6.09186 -16.543977,-11.53317 -16.730188,-12.09181 -0.186212,-0.55864 2.563728,-8.84939 6.110977,-18.4239 3.54725,-9.5745 6.598521,-17.92521 6.780602,-18.55713 C 46.351024,282.71914 40.9875,275.16906 34.25,266.5731 27.5125,257.97714 22,250.50118 22,249.95987 c 0,-0.54131 5.595319,-8.04473 12.434041,-16.67425 6.838723,-8.62953 12.284433,-15.93655 12.101577,-16.23783 -1.327402,-2.1871 -13.525524,-36.57807 -13.258254,-37.37988 0.186211,-0.55864 7.714796,-5.99995 16.730188,-12.09181 L 66.399173,156.5 66.195538,149 c -0.111999,-4.125 -0.482672,-13.37067 -0.823716,-20.54593 l -0.620081,-13.04593 19.860095,-5.47621 19.860094,-5.47621 5.51188,-19.757246 5.51187,-19.757244 20.63653,0.680513 20.63652,0.680514 11.13025,-16.651128 C 174.02062,40.493008 179.43862,33 179.93899,33 c 0.83452,0 35.85361,12.773789 37.11047,13.536656 0.30221,0.183427 7.59017,-5.262283 16.19547,-12.101576 C 241.85023,27.595786 249.39001,22 250,22 c 0.60999,0 8.14977,5.595786 16.75507,12.43508 8.6053,6.839293 15.89326,12.285003 16.19547,12.101576 C 284.2074,45.773789 319.22649,33 320.06101,33 c 0.50037,0 5.91837,7.493008 12.04001,16.651129 l 11.13025,16.651128 20.63652,-0.680514 20.63653,-0.680513 5.51043,19.752062 5.51043,19.752058 19.85996,5.51123 19.85996,5.51123 -0.6185,13.0161 C 434.28642,135.64276 433.91646,144.875 433.80446,149 l -0.20363,7.5 16.39162,11.0761 c 9.01539,6.09186 16.54397,11.53317 16.73019,12.09181 0.26727,0.80181 -11.93086,35.19278 -13.25826,37.37988 -0.18285,0.30128 5.26286,7.6083 12.10158,16.23783 C 472.40468,241.91514 478,249.43662 478,250 c 0,0.56338 -5.59532,8.08486 -12.43404,16.71438 -6.83872,8.62953 -12.28443,15.93655 -12.10158,16.23783 1.3274,2.1871 13.52553,36.57807 13.25826,37.37988 -0.18622,0.55864 -7.7148,5.99995 -16.73019,12.09181 l -16.39162,11.0761 0.20363,7.5 c 0.112,4.125 0.48205,13.35894 0.82234,20.51986 l 0.6187,13.01986 -19.85336,5.48014 -19.85335,5.48014 -5.51724,19.77939 -5.51723,19.77938 -20.63653,-0.68051 -20.63652,-0.68052 -11.13025,16.65113 C 325.97938,459.50699 320.56138,467 320.06101,467 c -0.83452,0 -35.85361,-12.77379 -37.11047,-13.53666 -0.30221,-0.18342 -7.59017,5.26229 -16.19547,12.10158 -8.6053,6.83929 -16.23304,12.40905 -16.95054,12.37724 -0.71749,-0.0318 -8.25677,-5.6279 -16.75395,-12.43577 z M 174,363 v -7 h 4.37219 c 4.30732,0 4.38143,0.0577 4.99448,3.89156 0.87901,5.49702 6.23705,10.10844 11.74505,10.10844 5.50514,0 9.84383,-4.20037 9.99163,-9.67308 l 0.10335,-3.82692 0.99111,3.72934 c 1.41398,5.32056 6.7798,9.77066 11.78122,9.77066 5.42984,0 9.12764,-3.34116 10.05691,-9.08695 l 0.71373,-4.41305 0.12516,4.92126 c 0.17679,6.95073 1.9525,8.57874 9.35708,8.57874 5.13051,0 6.29037,-0.36843 8.67875,-2.75681 5.49361,-5.49361 4.90483,-22.18938 -0.97112,-27.53739 -2.81251,-2.55982 -3.63078,-2.76953 -9.75479,-2.5 L 229.5,337.5 l -0.56662,8 c -0.31164,4.4 -0.64914,6.29015 -0.75,4.20034 C 227.81324,342.03102 223.31364,337 216.82455,337 c -7.66131,0 -10.6649,3.39858 -10.95816,12.39922 L 205.73277,353.5 205.07051,349 c -1.20885,-8.21395 -4.79259,-12 -11.35876,-12 -3.73746,0 -7.62314,1.40278 -8.78402,3.17115 -0.31475,0.47945 -1.64244,-0.0564 -2.95042,-1.19083 -1.97641,-1.71413 -3.48458,-2.01338 -8.92773,-1.77144 L 166.5,337.5 l -0.27681,14.76351 c -0.3021,16.11238 0.12914,17.63071 5.02681,17.69845 2.74172,0.0379 2.75,0.017 2.75,-6.96196 z m 17.56867,-4.75 c -0.34045,-2.6125 -0.25938,-6.775 0.18015,-9.25 0.63739,-3.58914 1.24973,-4.56468 3.02516,-4.81955 2.1349,-0.30647 2.22602,-0.007 2.22602,7.31574 0,7.90348 -1.07703,11.50381 -3.44135,11.50381 -0.882,0 -1.59175,-1.69412 -1.98998,-4.75 z m 23,0 c -0.34045,-2.6125 -0.25938,-6.775 0.18015,-9.25 0.63739,-3.58914 1.24973,-4.56468 3.02516,-4.81955 2.1349,-0.30647 2.22602,-0.007 2.22602,7.31574 0,7.90348 -1.07703,11.50381 -3.44135,11.50381 -0.882,0 -1.59175,-1.69412 -1.98998,-4.75 z M 237,353 c 0,-8.14755 0.17839,-9 1.88337,-9 2.19885,0 3.08932,2.59418 3.08932,9 0,6.40582 -0.89047,9 -3.08932,9 C 237.17839,362 237,361.14755 237,353 Z m -55,-3 c 0,-0.55 -1.8,-1 -4,-1 -3.33333,0 -4,-0.33333 -4,-2 0,-1.7037 0.66667,-2 4.5,-2 4.33333,0 4.5,0.11111 4.5,3 0,1.65 -0.225,3 -0.5,3 -0.275,0 -0.5,-0.45 -0.5,-1 z m 87.79772,13.25 c 0.22202,-4.66095 0.66695,-6.25 1.75,-6.25 1.06244,0 1.45228,1.25391 1.45228,4.67126 0,2.94333 0.61219,5.34772 1.65499,6.5 2.10998,2.3315 6.34501,2.44747 6.34501,0.17375 0,-1.53998 0.12708,-1.53998 1.82874,0 1.00581,0.91025 2.79723,1.65499 3.98095,1.65499 2.08748,0 2.57167,-0.92055 3.41286,-6.48852 0.47981,-3.17593 3.4274,-3.04472 4.2344,0.18849 0.88839,3.55934 3.34153,6.30003 5.63902,6.30003 2.55566,0 2.86581,-0.99543 1.87978,-6.03318 C 301.4949,361.51007 300.35344,355.45 299.43917,350.5 297.25031,338.64912 296.17303,337 290.62041,337 h -4.33349 l -2.22072,13.25 c -1.22139,7.2875 -2.37542,13.7 -2.56451,14.25 -0.18909,0.55 -0.37932,-4.41237 -0.42274,-11.02749 C 280.99186,340.20563 279.89514,337 275.4433,337 273.10283,337 273,337.27356 273,343.5 c 0,5.83333 -0.20513,6.5 -2,6.5 -1.71483,0 -2.00453,-0.67727 -2.0318,-4.75 -0.0361,-5.39631 -1.7063,-8.25 -4.82844,-8.25 -2.09311,0 -2.13976,0.33356 -2.13976,15.3 0,16.45705 0.44731,18.02419 4.99298,17.49298 2.34002,-0.27346 2.52685,-0.7093 2.80474,-6.54298 z m 50.61895,4.5 c 0.46666,-1 0.7,-1 1.16666,0 0.38977,0.83521 3.04445,1.25 8,1.25 C 336.41858,369 337,368.83761 337,366.92857 337,364.0097 334.64398,362 331.2221,362 h -2.92076 l -0.58986,-10.4162 C 327.07589,340.36012 325.81974,337 322.25945,337 320.02346,337 320,337.14228 320,350.7 c 0,10.65556 -0.26667,13.43333 -1.2,12.5 -0.66,-0.66 -2.6172,-1.2 -4.34933,-1.2 h -3.14933 L 310.7092,351.54363 C 310.04089,339.74206 309.05211,337 305.46482,337 H 303 v 14.54221 c 0,10.20989 0.37239,14.96517 1.25,15.96196 1.64508,1.86849 15.31244,2.07631 16.16667,0.24583 z M 232.5,309.98553 c 23.33898,-3.25029 37.73857,-14.20645 43.73326,-33.27519 1.94318,-6.18111 2.255,-9.28012 2.18449,-21.71034 -0.0864,-15.22112 -1.42631,-22.78519 -5.61492,-31.69608 -2.36362,-5.02839 -16.8173,-20.35205 -21.323,-22.60646 C 247.81214,198.86235 238.18262,197 232.36165,197 c -4.84104,0 -4.71565,0.28873 -5.86265,-13.5 -0.32026,-3.85 -0.83964,-8.9125 -1.15419,-11.25 L 224.77291,168 H 249.38646 274 v -11.68555 c 0,-10.62152 -0.19798,-11.89629 -2.17431,-14 -1.27787,-1.36023 -3.33932,-2.31445 -5,-2.31445 -2.5069,0 -2.82569,-0.35778 -2.82569,-3.17126 0,-1.74419 -0.74474,-3.99419 -1.65499,-5 C 260.79873,130.12012 258.26987,130 223.84501,130 H 187 v 45.17126 C 187,225.46106 186.80087,224 193.65499,224 c 3.09015,0 3.34501,0.24162 3.34501,3.17126 0,6.21798 1.59403,6.82713 17.90499,6.84239 8.02725,0.008 15.60751,0.285 16.84501,0.61664 2.16601,0.58046 2.24836,1.01859 2.20611,11.73634 -0.0635,16.11654 -2.413,21.51865 -10.36491,23.83201 -4.08661,1.18888 -30.23117,1.36779 -33.81167,0.23139 C 188.12958,269.90635 188,270.91658 188,284.30378 v 14.43856 l 5,0.66327 5,0.66328 v 4.34861 4.34862 l 6.75,0.98116 c 9.12418,1.32627 19.3095,1.41371 27.75,0.23825 z m 98,0 c 23.33898,-3.25029 37.73857,-14.20645 43.73326,-33.27519 1.94318,-6.18111 2.255,-9.28012 2.18449,-21.71034 -0.0864,-15.22112 -1.42631,-22.78519 -5.61492,-31.69608 -2.36362,-5.02839 -16.8173,-20.35205 -21.323,-22.60646 C 345.81214,198.86235 336.18262,197 330.36165,197 c -4.84104,0 -4.71565,0.28873 -5.86265,-13.5 -0.32026,-3.85 -0.83964,-8.9125 -1.15419,-11.25 L 322.77291,168 H 347.38646 372 v -11.68555 c 0,-10.62152 -0.19798,-11.89629 -2.17431,-14 -1.27787,-1.36023 -3.33932,-2.31445 -5,-2.31445 -2.5069,0 -2.82569,-0.35778 -2.82569,-3.17126 0,-1.74419 -0.74474,-3.99419 -1.65499,-5 C 358.79873,130.12012 356.26987,130 321.84501,130 H 285 v 45.17126 C 285,225.46106 284.80087,224 291.65499,224 c 3.09015,0 3.34501,0.24162 3.34501,3.17126 0,6.21798 1.59403,6.82713 17.90499,6.84239 8.02725,0.008 15.60751,0.285 16.84501,0.61664 2.16601,0.58046 2.24836,1.01859 2.20611,11.73634 -0.0635,16.11654 -2.413,21.51865 -10.36491,23.83201 -4.08661,1.18888 -30.23117,1.36779 -33.81167,0.23139 C 286.12958,269.90635 286,270.91658 286,284.30378 v 14.43856 l 5,0.66327 5,0.66328 v 4.34861 4.34862 l 6.75,0.98116 c 9.12418,1.32627 19.3095,1.41371 27.75,0.23825 z M 154,254 V 239 H 169.5 185 V 226.82874 C 185,212.99228 184.16237,211 178.34501,211 175.25486,211 175,210.75838 175,207.82874 175,202.20097 172.86231,201 162.84501,201 H 154 v -8.17126 C 154,183.5901 152.65226,181 147.84501,181 145.31641,181 145,180.6473 145,177.82874 145,171.74701 143.23277,171 128.84501,171 H 116 v 15 15 H 101 86 v 12.17126 C 86,227.00772 86.837626,229 92.654988,229 95.745144,229 96,229.24162 96,232.17126 96,237.72271 98.180021,239 107.65499,239 H 116 v 8.18555 c 0,7.02799 0.30748,8.51284 2.17431,10.5 1.27787,1.36023 3.33932,2.31445 5,2.31445 2.39571,0 2.82569,0.40648 2.82569,2.67126 0,5.49958 2.05105,6.32874 15.65499,6.32874 H 154 Z"
         id="path4" />
      <path
         style="fill:#568ca1"
         d="m 233.05058,465.50639 c -8.49718,-6.80786 -15.69718,-12.22754 -16,-12.04374 C 215.79303,454.22596 180.77399,467 179.93899,467 c -0.50037,0 -5.91837,-7.49301 -12.04001,-16.65113 l -11.13025,-16.65113 -20.63652,0.68052 -20.63653,0.68051 -5.51187,-19.75724 -5.51188,-19.75725 -19.860094,-5.47621 -19.860095,-5.47621 0.620081,-13.04593 C 65.712866,364.37067 66.083539,355.125 66.195538,351 l 0.203635,-7.5 -16.391621,-11.0761 c -9.015392,-6.09186 -16.543977,-11.53317 -16.730188,-12.09181 -0.186212,-0.55864 2.563728,-8.84939 6.110977,-18.4239 3.54725,-9.5745 6.598521,-17.92521 6.780602,-18.55713 C 46.351024,282.71914 40.9875,275.16906 34.25,266.5731 27.5125,257.97714 22,250.50118 22,249.95987 c 0,-0.54131 5.595319,-8.04473 12.434041,-16.67425 6.838723,-8.62953 12.284433,-15.93655 12.101577,-16.23783 -1.327402,-2.1871 -13.525524,-36.57807 -13.258254,-37.37988 0.186211,-0.55864 7.714796,-5.99995 16.730188,-12.09181 L 66.399173,156.5 66.195538,149 c -0.111999,-4.125 -0.482672,-13.37067 -0.823716,-20.54593 l -0.620081,-13.04593 19.860095,-5.47621 19.860094,-5.47621 5.51188,-19.757246 5.51187,-19.757244 20.63653,0.680513 20.63652,0.680514 11.13025,-16.651128 C 174.02062,40.493008 179.43862,33 179.93899,33 c 0.83452,0 35.85361,12.773789 37.11047,13.536656 0.30221,0.183427 7.59017,-5.262283 16.19547,-12.101576 C 241.85023,27.595786 249.39001,22 250,22 c 0.60999,0 8.14977,5.595786 16.75507,12.43508 8.6053,6.839293 15.89326,12.285003 16.19547,12.101576 C 284.2074,45.773789 319.22649,33 320.06101,33 c 0.50037,0 5.91837,7.493008 12.04001,16.651129 l 11.13025,16.651128 20.63652,-0.680514 20.63653,-0.680513 5.51043,19.752062 5.51043,19.752058 19.85996,5.51123 19.85996,5.51123 -0.6185,13.0161 C 434.28642,135.64276 433.91646,144.875 433.80446,149 l -0.20363,7.5 16.39162,11.0761 c 9.01539,6.09186 16.54397,11.53317 16.73019,12.09181 0.26727,0.80181 -11.93086,35.19278 -13.25826,37.37988 -0.18285,0.30128 5.26286,7.6083 12.10158,16.23783 C 472.40468,241.91514 478,249.43662 478,250 c 0,0.56338 -5.59532,8.08486 -12.43404,16.71438 -6.83872,8.62953 -12.28443,15.93655 -12.10158,16.23783 1.3274,2.1871 13.52553,36.57807 13.25826,37.37988 -0.18622,0.55864 -7.7148,5.99995 -16.73019,12.09181 l -16.39162,11.0761 0.20363,7.5 c 0.112,4.125 0.48205,13.35894 0.82234,20.51986 l 0.6187,13.01986 -19.85336,5.48014 -19.85335,5.48014 -5.51724,19.77939 -5.51723,19.77938 -20.63653,-0.68051 -20.63652,-0.68052 -11.13025,16.65113 C 325.97938,459.50699 320.56138,467 320.06101,467 c -0.83452,0 -35.85361,-12.77379 -37.11047,-13.53666 -0.30221,-0.18342 -7.59017,5.26229 -16.19547,12.10158 -8.6053,6.83929 -16.23304,12.40905 -16.95054,12.37724 -0.71749,-0.0318 -8.25677,-5.6279 -16.75395,-12.43577 z m 47.46903,-33.99301 c 59.0514,-10.00358 108.66254,-46.97847 134.97834,-100.59855 25.21247,-51.37197 24.67192,-113.93526 -1.42267,-164.65825 -26.33054,-51.18165 -74.49393,-87.097439 -130.64459,-97.422637 -17.20108,-3.163 -49.6603,-3.163 -66.86138,0 -37.5715,6.908791 -72.40601,25.643818 -99.14805,53.324747 -33.557127,34.73529 -51.420453,79.20573 -51.421064,128.01184 -6.39e-4,51.01296 20.492633,98.56001 57.760544,134.01195 41.07357,39.07217 100.17405,56.91664 156.75887,47.3309 z"
         id="path3" />
      <path
         style="fill:#0049ab"
         d="m 233.65481,465.44979 -15.81585,-12.55022 -18.98244,7.05022 C 188.41619,463.8274 179.74353,467 179.58395,467 c -0.15958,0 -5.4024,-7.69522 -11.6507,-17.10048 l -11.36056,-17.10048 -8.03634,0.57227 c -4.41999,0.31475 -13.60102,0.69746 -20.40228,0.85048 L 115.76813,434.5 110.24552,414.88118 104.72292,395.26236 85.111459,389.80064 65.5,384.33892 l 0.264416,-8.91946 c 0.14543,-4.9057 0.526928,-14.11162 0.847774,-20.4576 L 67.195548,343.42371 50.097774,332.06496 C 40.693998,325.81764 33,320.58134 33,320.42872 c 0,-0.23758 11.707152,-31.96756 13.476308,-36.52494 0.419344,-1.08023 -3.434375,-6.73715 -11.921706,-17.5 C 27.656858,257.6567 22.01325,250.275 22.01325,250 c 0,-0.275 5.643608,-7.6567 12.541352,-16.40378 8.511952,-10.79407 12.340566,-16.41663 11.916412,-17.5 C 45.387513,213.32874 33,179.64335 33,179.46446 c 0,-0.0939 7.693998,-5.2821 17.097774,-11.52942 L 67.195548,156.57629 66.61219,145.03814 c -0.320846,-6.34598 -0.702344,-15.5519 -0.847774,-20.4576 L 65.5,115.66108 l 19.611459,-5.46172 19.611461,-5.46172 5.5226,-19.618819 5.52261,-19.618821 12.36594,0.27821 c 6.80126,0.153015 15.98229,0.535731 20.40228,0.85048 l 8.03634,0.572269 11.36056,-17.100479 C 174.18155,40.695216 179.42437,33 179.58395,33 c 0.15958,0 8.83224,3.172596 19.27257,7.050214 l 18.98244,7.050214 15.81585,-12.550214 c 8.69872,-6.902618 16.04745,-12.547528 16.33052,-12.544245 0.28307,0.0033 7.63677,5.651486 16.34156,12.551563 l 15.82689,12.545593 18.98607,-7.051563 C 311.58218,36.173203 320.25647,33 320.41605,33 c 0.15958,0 5.4024,7.695216 11.6507,17.10048 l 11.36056,17.100479 8.03634,-0.572269 c 4.41999,-0.314749 13.60102,-0.697465 20.40228,-0.85048 L 384.23187,65.5 l 5.52261,19.618821 5.5226,19.618819 19.61146,5.46172 19.61146,5.46172 -0.26442,8.91946 c -0.14543,4.9057 -0.52692,14.11162 -0.84777,20.4576 l -0.58336,11.53815 17.09778,11.35875 C 459.306,174.18236 467,179.38195 467,179.48968 c 0,0.10773 -3.13679,8.69077 -6.97064,19.07343 -6.20215,16.79636 -6.82053,19.10133 -5.60903,20.90723 0.74888,1.11631 6.35479,8.32966 12.45757,16.02966 6.10278,7.7 11.09596,14.225 11.09596,14.5 0,0.275 -4.99318,6.8 -11.09596,14.5 -6.10278,7.7 -11.70869,14.91335 -12.45757,16.02966 -1.2115,1.8059 -0.59312,4.11087 5.60903,20.90723 3.83385,10.38266 6.97064,18.9657 6.97064,19.07343 0,0.10773 -7.694,5.30732 -17.09777,11.55464 l -17.09778,11.35875 0.58336,11.53815 c 0.32085,6.34598 0.70234,15.5519 0.84777,20.4576 l 0.26442,8.91946 -19.61146,5.46172 -19.61146,5.46172 -5.5226,19.61882 -5.52261,19.61882 -12.36594,-0.27821 c -6.80126,-0.15302 -15.98229,-0.53573 -20.40228,-0.85048 l -8.03634,-0.57227 -11.36056,17.10048 C 325.81845,459.30478 320.57563,467 320.41605,467 c -0.15958,0 -8.83387,-3.1732 -19.2762,-7.05156 l -18.98607,-7.05156 -15.82689,12.54559 c -8.70479,6.90007 -16.05849,12.54828 -16.34156,12.55156 -0.28307,0.003 -7.6318,-5.64163 -16.33052,-12.54424 z M 280.5,431.97011 c 14.80314,-2.49092 24.06492,-5.0276 36.98745,-10.13037 53.37309,-21.07564 94.73728,-66.57188 110.07523,-121.07114 6.88883,-24.47759 8.59375,-56.11071 4.38458,-81.35165 C 419.86492,146.96339 366.79477,89.435574 295,70.966716 c -26.19407,-6.738299 -63.80593,-6.738299 -90,0 -28.79571,7.407557 -55.69936,21.586204 -77.5,40.843724 -25.00854,22.09121 -44.956236,53.22574 -54.340922,84.81579 -9.40642,31.66321 -9.80525,71.7946 -1.027338,103.37377 15.215981,54.74058 56.85716,100.70465 110.38081,121.83974 22.47541,8.87495 39.24993,11.91562 66.48745,12.05198 15.28442,0.0765 22.0942,-0.3389 31.5,-1.92161 z"
         id="path2" />
    </g>
  </g>
</svg>
